<?xml version="1.0" encoding="UTF-8"?>
<svg xmlns="http://www.w3.org/2000/svg" xmlns:xlink="http://www.w3.org/1999/xlink" width="192pt" height="192pt" viewBox="0 0 192 192" version="1.1">
<g id="surface10812850">
<path style=" stroke:none;fill-rule:nonzero;fill:rgb(100%,100%,100%);fill-opacity:1;" d="M 24 40 C 21.113281 39.960938 18.429688 41.476562 16.976562 43.96875 C 15.523438 46.457031 15.523438 49.542969 16.976562 52.03125 C 18.429688 54.523438 21.113281 56.039062 24 56 L 168 56 C 170.886719 56.039062 173.570312 54.523438 175.023438 52.03125 C 176.476562 49.542969 176.476562 46.457031 175.023438 43.96875 C 173.570312 41.476562 170.886719 39.960938 168 40 Z M 24 88 C 21.113281 87.960938 18.429688 89.476562 16.976562 91.96875 C 15.523438 94.457031 15.523438 97.542969 16.976562 100.03125 C 18.429688 102.523438 21.113281 104.039062 24 104 L 168 104 C 170.886719 104.039062 173.570312 102.523438 175.023438 100.03125 C 176.476562 97.542969 176.476562 94.457031 175.023438 91.96875 C 173.570312 89.476562 170.886719 87.960938 168 88 Z M 24 136 C 21.113281 135.960938 18.429688 137.476562 16.976562 139.96875 C 15.523438 142.457031 15.523438 145.542969 16.976562 148.03125 C 18.429688 150.523438 21.113281 152.039062 24 152 L 168 152 C 170.886719 152.039062 173.570312 150.523438 175.023438 148.03125 C 176.476562 145.542969 176.476562 142.457031 175.023438 139.96875 C 173.570312 137.476562 170.886719 135.960938 168 136 Z M 24 136 "/>
</g>
</svg>
